<svg xmlns="http://www.w3.org/2000/svg" viewBox="0 0 52 85" x="0px" y="0px"><path fill="#000000" fill-rule="evenodd" d="M430,666 C427.238576,666 425,663.761424 425,661 C425,658.238576 427.238576,656 430,656 C432.761424,656 435,658.238576 435,661 C435,663.761424 432.761424,666 430,666 Z M435,671.352913 C441.194303,669.626544 447.751181,669.858832 453.957704,673.244209 C459.516167,676.276098 465.485567,676.276098 471.118663,674.432539 C471.941934,674.163105 472.67998,673.875554 473.319182,673.590291 C473.689239,673.425141 473.934732,673.30288 474.042296,673.244209 C475.375045,672.517255 477,673.481882 477,675 L477,703 C477,703.731888 476.600226,704.405325 475.957704,704.755791 C475.245348,705.144349 474.015137,705.693369 472.362819,706.234128 C465.773692,708.390569 458.706055,708.390569 452.042296,704.755791 C446.522847,701.745183 440.598209,701.724052 435,703.528915 L435,671.352913 Z M428,668.747965 L428,668.747965 C428.63924,668.912494 429.309401,669 430,669 C430.690599,669 431.36076,668.912494 432,668.747965 L432,723 C432,723.552285 431.552285,724 431,724 L429,724 C428.447715,724 428,723.552285 428,723 L428,668.747965 Z" transform="translate(-425 -656)"/><text x="0" y="83" fill="#000000" font-size="5px" font-weight="bold" font-family="'Helvetica Neue', Helvetica, Arial-Unicode, Arial, Sans-serif">Created by Andrejs Kirma</text><text x="0" y="88" fill="#000000" font-size="5px" font-weight="bold" font-family="'Helvetica Neue', Helvetica, Arial-Unicode, Arial, Sans-serif">from the Noun Project</text></svg>